<svg width="732" height="1024" viewBox="0 0 732 1024" fill="none" xmlns="http://www.w3.org/2000/svg">
<g filter="url(#filter0_f_39_60)">
<ellipse cx="101.182" cy="62.5884" rx="163.263" ry="158.312" transform="rotate(19.4199 101.182 62.5884)" fill="#199DE7"/>
</g>
<g filter="url(#filter1_f_39_60)">
<ellipse cx="65" cy="925" rx="120" ry="133" fill="#1B49C1"/>
<path d="M184.5 925C184.5 998.227 130.951 1057.5 65 1057.5C-0.95089 1057.5 -54.5 998.227 -54.5 925C-54.5 851.773 -0.95089 792.5 65 792.5C130.951 792.5 184.5 851.773 184.5 925Z" stroke="black"/>
</g>
<g filter="url(#filter2_f_39_60)">
<ellipse cx="119" cy="949.314" rx="199.99" ry="208.693" transform="rotate(19.4199 119 949.314)" fill="#199DE7"/>
</g>
<g filter="url(#filter3_f_39_60)">
<ellipse cx="83" cy="925" rx="138" ry="133" fill="#1B49C1"/>
<path d="M220.5 925C220.5 998.16 158.957 1057.5 83 1057.5C7.04329 1057.5 -54.5 998.16 -54.5 925C-54.5 851.84 7.04329 792.5 83 792.5C158.957 792.5 220.5 851.84 220.5 925Z" stroke="black"/>
</g>
<g filter="url(#filter4_f_39_60)">
<ellipse cx="101" cy="63" rx="120" ry="133" fill="#1B49C1"/>
<path d="M220.5 63C220.5 136.227 166.951 195.5 101 195.5C35.0491 195.5 -18.5 136.227 -18.5 63C-18.5 -10.2274 35.0491 -69.5 101 -69.5C166.951 -69.5 220.5 -10.2274 220.5 63Z" stroke="black"/>
</g>
<g filter="url(#filter5_f_39_60)">
<path d="M581.453 126.05C581.54 140.595 569.82 152.456 555.275 152.542V152.542C540.731 152.629 528.87 140.909 528.783 126.364L527.995 -5.59222C527.908 -20.1368 539.629 -31.9978 554.173 -32.0846V-32.0846C568.718 -32.1714 580.579 -20.4511 580.666 -5.90658L581.453 126.05Z" fill="#7CCAF7" fill-opacity="0.4"/>
</g>
<g filter="url(#filter6_f_39_60)">
<rect x="502.844" y="47.9976" width="38.0446" height="134" rx="19.0223" transform="rotate(179.658 502.844 47.9976)" fill="#7CCAF7" fill-opacity="0.4"/>
</g>
<rect x="540.341" y="85.4824" width="37.0446" height="133" rx="18.5223" transform="rotate(179.658 540.341 85.4824)" stroke="#7CCAF7"/>
<g filter="url(#filter7_d_39_60)">
<path d="M676.55 1082.91C687.138 1068.16 692.903 1050.42 693.162 1031.79C693.42 1013.15 688.162 994.399 678.01 977.749C667.858 961.099 653.236 947.25 635.876 937.839C618.516 928.429 599.144 923.852 580.052 924.65C560.961 925.448 542.949 931.588 528.15 942.342C513.35 953.097 502.382 968.016 496.543 985.334C490.704 1002.65 490.239 1021.64 495.203 1040.06C500.167 1058.48 510.352 1075.55 524.553 1089.26L531.642 1082.3C518.923 1070.02 509.801 1054.73 505.355 1038.23C500.909 1021.74 501.325 1004.73 506.555 989.216C511.784 973.705 521.608 960.343 534.863 950.711C548.118 941.079 564.25 935.58 581.349 934.865C598.449 934.15 615.799 938.25 631.348 946.678C646.897 955.106 659.992 967.51 669.085 982.423C678.178 997.335 682.887 1014.13 682.655 1030.82C682.424 1047.51 677.261 1063.4 667.778 1076.61L676.55 1082.91Z" fill="#D9D9D9"/>
</g>
<g filter="url(#filter8_d_39_60)">
<ellipse cx="592.5" cy="1020.5" rx="41.5" ry="35.5" fill="#7CCAF7"/>
</g>
<ellipse cx="631.5" cy="942.5" rx="17.5" ry="19.5" fill="#7C90F7"/>
<path d="M622.2 58.2557C621.412 58.2557 620.735 57.9734 620.171 57.4087C619.606 56.8441 619.324 56.1676 619.324 55.3793C619.324 54.5909 619.606 53.9144 620.171 53.3498C620.735 52.7852 621.412 52.5028 622.2 52.5028C622.989 52.5028 623.665 52.7852 624.23 53.3498C624.794 53.9144 625.077 54.5909 625.077 55.3793C625.077 55.9013 624.944 56.3807 624.677 56.8175C624.422 57.2543 624.075 57.6058 623.638 57.8722C623.212 58.1278 622.733 58.2557 622.2 58.2557ZM647.249 58.2557C646.461 58.2557 645.784 57.9734 645.22 57.4087C644.655 56.8441 644.373 56.1676 644.373 55.3793C644.373 54.5909 644.655 53.9144 645.22 53.3498C645.784 52.7852 646.461 52.5028 647.249 52.5028C648.037 52.5028 648.714 52.7852 649.279 53.3498C649.843 53.9144 650.126 54.5909 650.126 55.3793C650.126 55.9013 649.992 56.3807 649.726 56.8175C649.47 57.2543 649.124 57.6058 648.687 57.8722C648.261 58.1278 647.782 58.2557 647.249 58.2557ZM672.298 58.2557C671.51 58.2557 670.833 57.9734 670.268 57.4087C669.704 56.8441 669.422 56.1676 669.422 55.3793C669.422 54.5909 669.704 53.9144 670.268 53.3498C670.833 52.7852 671.51 52.5028 672.298 52.5028C673.086 52.5028 673.763 52.7852 674.327 53.3498C674.892 53.9144 675.174 54.5909 675.174 55.3793C675.174 55.9013 675.041 56.3807 674.775 56.8175C674.519 57.2543 674.173 57.6058 673.736 57.8722C673.31 58.1278 672.831 58.2557 672.298 58.2557ZM697.347 58.2557C696.558 58.2557 695.882 57.9734 695.317 57.4087C694.753 56.8441 694.47 56.1676 694.47 55.3793C694.47 54.5909 694.753 53.9144 695.317 53.3498C695.882 52.7852 696.558 52.5028 697.347 52.5028C698.135 52.5028 698.812 52.7852 699.376 53.3498C699.941 53.9144 700.223 54.5909 700.223 55.3793C700.223 55.9013 700.09 56.3807 699.824 56.8175C699.568 57.2543 699.222 57.6058 698.785 57.8722C698.359 58.1278 697.879 58.2557 697.347 58.2557Z" fill="white"/>
<ellipse cx="660.5" cy="0.5" rx="46.5" ry="34.5" fill="#7CCAF7"/>
<path d="M622.2 85.2557C621.412 85.2557 620.735 84.9734 620.171 84.4087C619.606 83.8441 619.324 83.1676 619.324 82.3793C619.324 81.5909 619.606 80.9144 620.171 80.3498C620.735 79.7852 621.412 79.5028 622.2 79.5028C622.989 79.5028 623.665 79.7852 624.23 80.3498C624.794 80.9144 625.077 81.5909 625.077 82.3793C625.077 82.9013 624.944 83.3807 624.677 83.8175C624.422 84.2543 624.075 84.6058 623.638 84.8722C623.212 85.1278 622.733 85.2557 622.2 85.2557ZM647.249 85.2557C646.461 85.2557 645.784 84.9734 645.22 84.4087C644.655 83.8441 644.373 83.1676 644.373 82.3793C644.373 81.5909 644.655 80.9144 645.22 80.3498C645.784 79.7852 646.461 79.5028 647.249 79.5028C648.037 79.5028 648.714 79.7852 649.279 80.3498C649.843 80.9144 650.126 81.5909 650.126 82.3793C650.126 82.9013 649.992 83.3807 649.726 83.8175C649.47 84.2543 649.124 84.6058 648.687 84.8722C648.261 85.1278 647.782 85.2557 647.249 85.2557ZM672.298 85.2557C671.51 85.2557 670.833 84.9734 670.268 84.4087C669.704 83.8441 669.422 83.1676 669.422 82.3793C669.422 81.5909 669.704 80.9144 670.268 80.3498C670.833 79.7852 671.51 79.5028 672.298 79.5028C673.086 79.5028 673.763 79.7852 674.327 80.3498C674.892 80.9144 675.174 81.5909 675.174 82.3793C675.174 82.9013 675.041 83.3807 674.775 83.8175C674.519 84.2543 674.173 84.6058 673.736 84.8722C673.31 85.1278 672.831 85.2557 672.298 85.2557ZM697.347 85.2557C696.558 85.2557 695.882 84.9734 695.317 84.4087C694.753 83.8441 694.47 83.1676 694.47 82.3793C694.47 81.5909 694.753 80.9144 695.317 80.3498C695.882 79.7852 696.558 79.5028 697.347 79.5028C698.135 79.5028 698.812 79.7852 699.376 80.3498C699.941 80.9144 700.223 81.5909 700.223 82.3793C700.223 82.9013 700.09 83.3807 699.824 83.8175C699.568 84.2543 699.222 84.6058 698.785 84.8722C698.359 85.1278 697.879 85.2557 697.347 85.2557Z" fill="white"/>
<path d="M622.2 107.256C621.412 107.256 620.735 106.973 620.171 106.409C619.606 105.844 619.324 105.168 619.324 104.379C619.324 103.591 619.606 102.914 620.171 102.35C620.735 101.785 621.412 101.503 622.2 101.503C622.989 101.503 623.665 101.785 624.23 102.35C624.794 102.914 625.077 103.591 625.077 104.379C625.077 104.901 624.944 105.381 624.677 105.817C624.422 106.254 624.075 106.606 623.638 106.872C623.212 107.128 622.733 107.256 622.2 107.256ZM647.249 107.256C646.461 107.256 645.784 106.973 645.22 106.409C644.655 105.844 644.373 105.168 644.373 104.379C644.373 103.591 644.655 102.914 645.22 102.35C645.784 101.785 646.461 101.503 647.249 101.503C648.037 101.503 648.714 101.785 649.279 102.35C649.843 102.914 650.126 103.591 650.126 104.379C650.126 104.901 649.992 105.381 649.726 105.817C649.47 106.254 649.124 106.606 648.687 106.872C648.261 107.128 647.782 107.256 647.249 107.256ZM672.298 107.256C671.51 107.256 670.833 106.973 670.268 106.409C669.704 105.844 669.422 105.168 669.422 104.379C669.422 103.591 669.704 102.914 670.268 102.35C670.833 101.785 671.51 101.503 672.298 101.503C673.086 101.503 673.763 101.785 674.327 102.35C674.892 102.914 675.174 103.591 675.174 104.379C675.174 104.901 675.041 105.381 674.775 105.817C674.519 106.254 674.173 106.606 673.736 106.872C673.31 107.128 672.831 107.256 672.298 107.256ZM697.347 107.256C696.558 107.256 695.882 106.973 695.317 106.409C694.753 105.844 694.47 105.168 694.47 104.379C694.47 103.591 694.753 102.914 695.317 102.35C695.882 101.785 696.558 101.503 697.347 101.503C698.135 101.503 698.812 101.785 699.376 102.35C699.941 102.914 700.223 103.591 700.223 104.379C700.223 104.901 700.09 105.381 699.824 105.817C699.568 106.254 699.222 106.606 698.785 106.872C698.359 107.128 697.879 107.256 697.347 107.256Z" fill="white"/>
<defs>
<filter id="filter0_f_39_60" x="-91.5851" y="-126.322" width="385.535" height="377.82" filterUnits="userSpaceOnUse" color-interpolation-filters="sRGB">
<feFlood flood-opacity="0" result="BackgroundImageFix"/>
<feBlend mode="normal" in="SourceGraphic" in2="BackgroundImageFix" result="shape"/>
<feGaussianBlur stdDeviation="15" result="effect1_foregroundBlur_39_60"/>
</filter>
<filter id="filter1_f_39_60" x="-254" y="593" width="638" height="664" filterUnits="userSpaceOnUse" color-interpolation-filters="sRGB">
<feFlood flood-opacity="0" result="BackgroundImageFix"/>
<feBlend mode="normal" in="SourceGraphic" in2="BackgroundImageFix" result="shape"/>
<feGaussianBlur stdDeviation="99.5" result="effect1_foregroundBlur_39_60"/>
</filter>
<filter id="filter2_f_39_60" x="-112.025" y="711.509" width="462.05" height="475.611" filterUnits="userSpaceOnUse" color-interpolation-filters="sRGB">
<feFlood flood-opacity="0" result="BackgroundImageFix"/>
<feBlend mode="normal" in="SourceGraphic" in2="BackgroundImageFix" result="shape"/>
<feGaussianBlur stdDeviation="15" result="effect1_foregroundBlur_39_60"/>
</filter>
<filter id="filter3_f_39_60" x="-254" y="593" width="674" height="664" filterUnits="userSpaceOnUse" color-interpolation-filters="sRGB">
<feFlood flood-opacity="0" result="BackgroundImageFix"/>
<feBlend mode="normal" in="SourceGraphic" in2="BackgroundImageFix" result="shape"/>
<feGaussianBlur stdDeviation="99.5" result="effect1_foregroundBlur_39_60"/>
</filter>
<filter id="filter4_f_39_60" x="-218" y="-269" width="638" height="664" filterUnits="userSpaceOnUse" color-interpolation-filters="sRGB">
<feFlood flood-opacity="0" result="BackgroundImageFix"/>
<feBlend mode="normal" in="SourceGraphic" in2="BackgroundImageFix" result="shape"/>
<feGaussianBlur stdDeviation="99.5" result="effect1_foregroundBlur_39_60"/>
</filter>
<filter id="filter5_f_39_60" x="523.995" y="-36.0851" width="61.459" height="192.628" filterUnits="userSpaceOnUse" color-interpolation-filters="sRGB">
<feFlood flood-opacity="0" result="BackgroundImageFix"/>
<feBlend mode="normal" in="SourceGraphic" in2="BackgroundImageFix" result="shape"/>
<feGaussianBlur stdDeviation="2" result="effect1_foregroundBlur_39_60"/>
</filter>
<filter id="filter6_f_39_60" x="460.113" y="-89.8868" width="46.6174" height="141.998" filterUnits="userSpaceOnUse" color-interpolation-filters="sRGB">
<feFlood flood-opacity="0" result="BackgroundImageFix"/>
<feBlend mode="normal" in="SourceGraphic" in2="BackgroundImageFix" result="shape"/>
<feGaussianBlur stdDeviation="2" result="effect1_foregroundBlur_39_60"/>
</filter>
<filter id="filter7_d_39_60" x="487.794" y="924.561" width="209.377" height="172.7" filterUnits="userSpaceOnUse" color-interpolation-filters="sRGB">
<feFlood flood-opacity="0" result="BackgroundImageFix"/>
<feColorMatrix in="SourceAlpha" type="matrix" values="0 0 0 0 0 0 0 0 0 0 0 0 0 0 0 0 0 0 127 0" result="hardAlpha"/>
<feOffset dy="4"/>
<feGaussianBlur stdDeviation="2"/>
<feComposite in2="hardAlpha" operator="out"/>
<feColorMatrix type="matrix" values="0 0 0 0 0 0 0 0 0 0 0 0 0 0 0 0 0 0 0.25 0"/>
<feBlend mode="normal" in2="BackgroundImageFix" result="effect1_dropShadow_39_60"/>
<feBlend mode="normal" in="SourceGraphic" in2="effect1_dropShadow_39_60" result="shape"/>
</filter>
<filter id="filter8_d_39_60" x="547" y="985" width="91" height="79" filterUnits="userSpaceOnUse" color-interpolation-filters="sRGB">
<feFlood flood-opacity="0" result="BackgroundImageFix"/>
<feColorMatrix in="SourceAlpha" type="matrix" values="0 0 0 0 0 0 0 0 0 0 0 0 0 0 0 0 0 0 127 0" result="hardAlpha"/>
<feOffset dy="4"/>
<feGaussianBlur stdDeviation="2"/>
<feComposite in2="hardAlpha" operator="out"/>
<feColorMatrix type="matrix" values="0 0 0 0 0 0 0 0 0 0 0 0 0 0 0 0 0 0 0.25 0"/>
<feBlend mode="normal" in2="BackgroundImageFix" result="effect1_dropShadow_39_60"/>
<feBlend mode="normal" in="SourceGraphic" in2="effect1_dropShadow_39_60" result="shape"/>
</filter>
</defs>
</svg>
